# xmcd
# 
# Track frame offsets:
#     150
#     13955
#     25953
#     41120
#     58543
#     72053
# 
# Disc length: 1121
# 
# Revision: 4
# Processed by: cddbd v1.5.2PL0 Copyright (c) Steve Scherf et al.
# Submitted via: fre:ac v1.0.17
# 
DISCID=4d045f06
DTITLE=Comix Zone - Comix Zone - Roadkill
DYEAR=1996
DGENRE=Soundtrack
TTITLE0=Into the zone
TTITLE1=Feed my Disease
TTITLE2=10,000 Knives
TTITLE3=Seen It For Days
TTITLE4=Woe is The World
TTITLE5=Last To Follow
EXTD=Music and Lyrics by Howard Drossin and Tim P.
EXTT0=
EXTT1=
EXTT2=
EXTT3=
EXTT4=
EXTT5=
PLAYORDER=
